<svg xmlns="http://www.w3.org/2000/svg" xmlns:xlink="http://www.w3.org/1999/xlink" width="1920" zoomAndPan="magnify" viewBox="0 0 1440 809.999993" height="1080" preserveAspectRatio="xMidYMid meet" version="1.0"><defs><clipPath id="c164850cf9"><path d="M 767 442 L 859.640625 442 L 859.640625 544.640625 L 767 544.640625 Z M 767 442 " clip-rule="nonzero"/></clipPath><clipPath id="02aa72f999"><path d="M 580.640625 442 L 674 442 L 674 544.640625 L 580.640625 544.640625 Z M 580.640625 442 " clip-rule="nonzero"/></clipPath><clipPath id="265a6b5044"><path d="M 757 265.640625 L 859.640625 265.640625 L 859.640625 368 L 757 368 Z M 757 265.640625 " clip-rule="nonzero"/></clipPath><clipPath id="cd6f023396"><path d="M 580.640625 265.640625 L 683 265.640625 L 683 368 L 580.640625 368 Z M 580.640625 265.640625 " clip-rule="nonzero"/></clipPath><clipPath id="1f7333441c"><path d="M 651.351562 315.320312 L 788.601562 315.320312 L 788.601562 494.570312 L 651.351562 494.570312 Z M 651.351562 315.320312 " clip-rule="nonzero"/></clipPath></defs><g clip-path="url(#c164850cf9)"><path fill="#228b22" d="M 850.339844 442.339844 C 845.199219 442.339844 841.039062 446.5 841.039062 451.640625 L 841.039062 526.039062 L 776.511719 526.039062 C 771.371094 526.039062 767.210938 530.199219 767.210938 535.339844 C 767.210938 540.480469 771.371094 544.640625 776.511719 544.640625 L 850.339844 544.640625 C 855.480469 544.640625 859.640625 540.480469 859.640625 535.339844 L 859.640625 451.640625 C 859.640625 446.5 855.480469 442.339844 850.339844 442.339844 Z M 850.339844 442.339844 " fill-opacity="1" fill-rule="nonzero"/></g><g clip-path="url(#02aa72f999)"><path fill="#228b22" d="M 589.941406 544.640625 L 663.761719 544.640625 C 668.898438 544.640625 673.0625 540.480469 673.0625 535.339844 C 673.0625 530.199219 668.898438 526.039062 663.761719 526.039062 L 599.238281 526.039062 L 599.238281 451.640625 C 599.238281 446.5 595.074219 442.339844 589.941406 442.339844 C 584.804688 442.339844 580.640625 446.5 580.640625 451.640625 L 580.640625 535.339844 C 580.640625 540.480469 584.804688 544.640625 589.941406 544.640625 Z M 589.941406 544.640625 " fill-opacity="1" fill-rule="nonzero"/></g><g clip-path="url(#265a6b5044)"><path fill="#228b22" d="M 850.339844 265.640625 L 766.640625 265.640625 C 761.5 265.640625 757.339844 269.800781 757.339844 274.941406 C 757.339844 280.082031 761.5 284.238281 766.640625 284.238281 L 841.039062 284.238281 L 841.039062 358.640625 C 841.039062 363.78125 845.199219 367.941406 850.339844 367.941406 C 855.480469 367.941406 859.640625 363.78125 859.640625 358.640625 L 859.640625 274.941406 C 859.640625 269.800781 855.480469 265.640625 850.339844 265.640625 Z M 850.339844 265.640625 " fill-opacity="1" fill-rule="nonzero"/></g><g clip-path="url(#cd6f023396)"><path fill="#228b22" d="M 589.941406 367.941406 C 595.074219 367.941406 599.238281 363.78125 599.238281 358.640625 L 599.238281 284.238281 L 673.640625 284.238281 C 678.777344 284.238281 682.941406 280.082031 682.941406 274.941406 C 682.941406 269.800781 678.777344 265.640625 673.640625 265.640625 L 589.941406 265.640625 C 584.804688 265.640625 580.640625 269.800781 580.640625 274.941406 L 580.640625 358.640625 C 580.640625 363.78125 584.804688 367.941406 589.941406 367.941406 Z M 589.941406 367.941406 " fill-opacity="1" fill-rule="nonzero"/></g><g clip-path="url(#1f7333441c)"><path fill="#d9d9d9" d="M 660.652344 315.378906 C 655.242188 315.378906 650.929688 319.742188 650.929688 325.15625 L 650.929688 485.007812 C 650.929688 490.421875 655.242188 494.785156 660.652344 494.785156 L 779.335938 494.785156 C 784.75 494.785156 789.058594 490.421875 789.058594 485.007812 L 789.058594 364.894531 L 753.304688 364.894531 C 745.984375 364.894531 739.597656 359.554688 739.597656 352.460938 L 739.597656 315.382812 L 660.652344 315.382812 Z M 746.398438 315.378906 L 746.398438 352.460938 C 746.398438 355.375 749.171875 358.09375 753.304688 358.09375 L 789.058594 358.09375 Z M 746.398438 315.378906 " fill-opacity="1" fill-rule="nonzero"/></g><path fill="#228b22" d="M 672.265625 359.855469 L 730.902344 359.855469 C 731.300781 359.855469 731.683594 359.929688 732.050781 360.082031 C 732.421875 360.238281 732.746094 360.453125 733.027344 360.734375 C 733.308594 361.015625 733.527344 361.339844 733.679688 361.710938 C 733.832031 362.078125 733.90625 362.460938 733.90625 362.859375 L 733.90625 367.367188 C 733.90625 367.765625 733.832031 368.148438 733.679688 368.515625 C 733.527344 368.882812 733.308594 369.207031 733.027344 369.492188 C 732.746094 369.773438 732.421875 369.988281 732.050781 370.140625 C 731.683594 370.292969 731.300781 370.371094 730.902344 370.371094 L 672.265625 370.371094 C 671.867188 370.371094 671.484375 370.292969 671.113281 370.140625 C 670.746094 369.988281 670.421875 369.773438 670.140625 369.492188 C 669.859375 369.207031 669.640625 368.882812 669.488281 368.515625 C 669.335938 368.148438 669.261719 367.765625 669.261719 367.367188 L 669.261719 362.859375 C 669.261719 362.460938 669.335938 362.078125 669.488281 361.710938 C 669.640625 361.339844 669.859375 361.015625 670.140625 360.734375 C 670.421875 360.453125 670.746094 360.238281 671.113281 360.082031 C 671.484375 359.929688 671.867188 359.855469 672.265625 359.855469 Z M 672.265625 359.855469 " fill-opacity="1" fill-rule="nonzero"/><path fill="#228b22" d="M 672.265625 408.867188 L 767.726562 408.867188 C 768.125 408.867188 768.507812 408.941406 768.875 409.09375 C 769.242188 409.246094 769.570312 409.464844 769.851562 409.746094 C 770.132812 410.027344 770.347656 410.351562 770.5 410.71875 C 770.652344 411.089844 770.730469 411.472656 770.730469 411.871094 L 770.730469 416.375 C 770.730469 416.773438 770.652344 417.160156 770.5 417.527344 C 770.347656 417.894531 770.132812 418.21875 769.851562 418.5 C 769.570312 418.78125 769.242188 419 768.875 419.152344 C 768.507812 419.304688 768.125 419.382812 767.726562 419.382812 L 672.265625 419.382812 C 671.867188 419.382812 671.484375 419.304688 671.113281 419.152344 C 670.746094 419 670.421875 418.78125 670.140625 418.5 C 669.859375 418.21875 669.640625 417.894531 669.488281 417.527344 C 669.335938 417.160156 669.261719 416.773438 669.261719 416.375 L 669.261719 411.871094 C 669.261719 411.472656 669.335938 411.089844 669.488281 410.71875 C 669.640625 410.351562 669.859375 410.027344 670.140625 409.746094 C 670.421875 409.464844 670.746094 409.246094 671.113281 409.09375 C 671.484375 408.941406 671.867188 408.867188 672.265625 408.867188 Z M 672.265625 408.867188 " fill-opacity="1" fill-rule="nonzero"/><path fill="#228b22" d="M 672.265625 384.359375 L 730.902344 384.359375 C 731.300781 384.359375 731.683594 384.4375 732.050781 384.589844 C 732.421875 384.742188 732.746094 384.957031 733.027344 385.238281 C 733.308594 385.519531 733.527344 385.847656 733.679688 386.214844 C 733.832031 386.582031 733.90625 386.964844 733.90625 387.363281 L 733.90625 391.871094 C 733.90625 392.269531 733.832031 392.652344 733.679688 393.019531 C 733.527344 393.386719 733.308594 393.714844 733.027344 393.996094 C 732.746094 394.277344 732.421875 394.492188 732.050781 394.644531 C 731.683594 394.796875 731.300781 394.875 730.902344 394.875 L 672.265625 394.875 C 671.867188 394.875 671.484375 394.796875 671.113281 394.644531 C 670.746094 394.492188 670.421875 394.277344 670.140625 393.996094 C 669.859375 393.714844 669.640625 393.386719 669.488281 393.019531 C 669.335938 392.652344 669.261719 392.269531 669.261719 391.871094 L 669.261719 387.363281 C 669.261719 386.964844 669.335938 386.582031 669.488281 386.214844 C 669.640625 385.847656 669.859375 385.519531 670.140625 385.238281 C 670.421875 384.957031 670.746094 384.742188 671.113281 384.589844 C 671.484375 384.4375 671.867188 384.359375 672.265625 384.359375 Z M 672.265625 384.359375 " fill-opacity="1" fill-rule="nonzero"/><path fill="#228b22" d="M 672.265625 433.371094 L 767.726562 433.371094 C 768.125 433.371094 768.507812 433.445312 768.875 433.597656 C 769.242188 433.75 769.570312 433.96875 769.851562 434.25 C 770.132812 434.53125 770.347656 434.855469 770.5 435.226562 C 770.652344 435.59375 770.730469 435.976562 770.730469 436.375 L 770.730469 440.882812 C 770.730469 441.28125 770.652344 441.664062 770.5 442.03125 C 770.347656 442.398438 770.132812 442.722656 769.851562 443.003906 C 769.570312 443.289062 769.242188 443.503906 768.875 443.65625 C 768.507812 443.808594 768.125 443.886719 767.726562 443.886719 L 672.265625 443.886719 C 671.867188 443.886719 671.484375 443.808594 671.113281 443.65625 C 670.746094 443.503906 670.421875 443.289062 670.140625 443.003906 C 669.859375 442.722656 669.640625 442.398438 669.488281 442.03125 C 669.335938 441.664062 669.261719 441.28125 669.261719 440.882812 L 669.261719 436.375 C 669.261719 435.976562 669.335938 435.59375 669.488281 435.226562 C 669.640625 434.855469 669.859375 434.53125 670.140625 434.25 C 670.421875 433.96875 670.746094 433.75 671.113281 433.597656 C 671.484375 433.445312 671.867188 433.371094 672.265625 433.371094 Z M 672.265625 433.371094 " fill-opacity="1" fill-rule="nonzero"/><path fill="#228b22" d="M 672.265625 457.875 L 767.726562 457.875 C 768.125 457.875 768.507812 457.953125 768.875 458.105469 C 769.242188 458.257812 769.570312 458.472656 769.851562 458.753906 C 770.132812 459.035156 770.347656 459.363281 770.5 459.730469 C 770.652344 460.097656 770.730469 460.480469 770.730469 460.878906 L 770.730469 465.386719 C 770.730469 465.785156 770.652344 466.167969 770.5 466.535156 C 770.347656 466.902344 770.132812 467.226562 769.851562 467.511719 C 769.570312 467.792969 769.242188 468.007812 768.875 468.160156 C 768.507812 468.3125 768.125 468.390625 767.726562 468.390625 L 672.265625 468.390625 C 671.867188 468.390625 671.484375 468.3125 671.113281 468.160156 C 670.746094 468.007812 670.421875 467.792969 670.140625 467.511719 C 669.859375 467.226562 669.640625 466.902344 669.488281 466.535156 C 669.335938 466.167969 669.261719 465.785156 669.261719 465.386719 L 669.261719 460.878906 C 669.261719 460.480469 669.335938 460.097656 669.488281 459.730469 C 669.640625 459.363281 669.859375 459.035156 670.140625 458.753906 C 670.421875 458.472656 670.746094 458.257812 671.113281 458.105469 C 671.484375 457.953125 671.867188 457.875 672.265625 457.875 Z M 672.265625 457.875 " fill-opacity="1" fill-rule="nonzero"/></svg>